<svg xmlns="http://www.w3.org/2000/svg" width="1200" height="760" viewBox="0 0 1200 760" role="img" aria-labelledby="title desc">
<title id="title">Age-Appropriate Toy Safety Labels Decoded article graphic</title>
<desc id="desc">Unique branded article graphic for SaferKids: Age-Appropriate Toy Safety Labels Decoded.</desc>
<rect width="1200" height="760" fill="#e8f4f8"/>
<rect width="1200" height="30" fill="#e59b3a"/>
<path d="M0 650 C190 570 250 720 430 625 S780 548 1200 650 L1200 760 L0 760 Z" fill="#173b57" opacity="0.08"/>
<text x="72" y="84" fill="#e59b3a" font-size="22" font-weight="800" letter-spacing="3">SAFERKIDS</text>
<text x="72" y="150" fill="#173b57" font-size="44" font-weight="800">Age-Appropriate Toy Safety Labels</text><text x="72" y="208" fill="#173b57" font-size="44" font-weight="800">Decoded</text>
<circle cx="780" cy="430" r="112" fill="#173b57"/>
<text x="780" y="418" text-anchor="middle" fill="white" font-size="25" font-weight="800">ARTICLE</text>
<text x="780" y="454" text-anchor="middle" fill="white" font-size="25" font-weight="800">MAP</text>
<line x1="780" y1="430" x2="932" y2="583" stroke="#e59b3a" stroke-width="6"/><circle cx="932" cy="583" r="50" fill="white" stroke="#e59b3a" stroke-width="6"/><text x="932" y="589" text-anchor="middle" fill="#173b57" font-size="16" font-weight="800">CHECK</text><line x1="780" y1="430" x2="562" y2="533" stroke="#e59b3a" stroke-width="6"/><circle cx="562" cy="533" r="55" fill="white" stroke="#e59b3a" stroke-width="6"/><text x="562" y="539" text-anchor="middle" fill="#173b57" font-size="16" font-weight="800">VERIFY</text><line x1="780" y1="430" x2="543" y2="353" stroke="#e59b3a" stroke-width="6"/><circle cx="543" cy="353" r="59" fill="white" stroke="#e59b3a" stroke-width="6"/><text x="543" y="359" text-anchor="middle" fill="#173b57" font-size="16" font-weight="800">MAP</text><line x1="780" y1="430" x2="744" y2="242" stroke="#e59b3a" stroke-width="6"/><circle cx="744" cy="242" r="45" fill="white" stroke="#e59b3a" stroke-width="6"/><text x="744" y="248" text-anchor="middle" fill="#173b57" font-size="16" font-weight="800">NEXT</text>
<circle cx="90" cy="680" r="14" fill="#e59b3a" opacity="0.35"/><circle cx="172" cy="680" r="11" fill="#e59b3a" opacity="0.35"/><circle cx="254" cy="680" r="13" fill="#e59b3a" opacity="0.35"/><circle cx="336" cy="680" r="14" fill="#e59b3a" opacity="0.35"/><circle cx="418" cy="680" r="15" fill="#e59b3a" opacity="0.35"/><circle cx="500" cy="680" r="11" fill="#e59b3a" opacity="0.35"/><circle cx="582" cy="680" r="13" fill="#e59b3a" opacity="0.35"/><circle cx="664" cy="680" r="14" fill="#e59b3a" opacity="0.35"/><circle cx="746" cy="680" r="15" fill="#e59b3a" opacity="0.35"/><circle cx="828" cy="680" r="15" fill="#e59b3a" opacity="0.35"/><circle cx="910" cy="680" r="15" fill="#e59b3a" opacity="0.35"/><circle cx="992" cy="680" r="15" fill="#e59b3a" opacity="0.35"/>
<text x="72" y="724" fill="#173b57" font-size="18">Unique article graphic • age-appropriate-toy-safety-labels-decoded</text>
</svg>
