<svg xmlns="http://www.w3.org/2000/svg" width="1200" height="760" viewBox="0 0 1200 760" role="img" aria-labelledby="title desc">
<title id="title">Bathroom Medicine Storage: A Weekly Family Check article graphic</title>
<desc id="desc">Unique branded article graphic for SaferKids: Bathroom Medicine Storage: A Weekly Family Check.</desc>
<rect width="1200" height="760" fill="#e8f4f8"/>
<rect width="1200" height="30" fill="#e59b3a"/>
<path d="M0 650 C190 570 250 720 430 625 S780 548 1200 650 L1200 760 L0 760 Z" fill="#173b57" opacity="0.08"/>
<text x="72" y="84" fill="#e59b3a" font-size="22" font-weight="800" letter-spacing="3">SAFERKIDS</text>
<text x="72" y="150" fill="#173b57" font-size="44" font-weight="800">Bathroom Medicine Storage: A</text><text x="72" y="208" fill="#173b57" font-size="44" font-weight="800">Weekly Family Check</text>
<circle cx="780" cy="430" r="112" fill="#173b57"/>
<text x="780" y="418" text-anchor="middle" fill="white" font-size="25" font-weight="800">ARTICLE</text>
<text x="780" y="454" text-anchor="middle" fill="white" font-size="25" font-weight="800">MAP</text>
<line x1="780" y1="430" x2="979" y2="552" stroke="#e59b3a" stroke-width="6"/><circle cx="979" cy="552" r="46" fill="white" stroke="#e59b3a" stroke-width="6"/><text x="979" y="558" text-anchor="middle" fill="#173b57" font-size="16" font-weight="800">CHECK</text><line x1="780" y1="430" x2="570" y2="541" stroke="#e59b3a" stroke-width="6"/><circle cx="570" cy="541" r="48" fill="white" stroke="#e59b3a" stroke-width="6"/><text x="570" y="547" text-anchor="middle" fill="#173b57" font-size="16" font-weight="800">VERIFY</text><line x1="780" y1="430" x2="536" y2="366" stroke="#e59b3a" stroke-width="6"/><circle cx="536" cy="366" r="48" fill="white" stroke="#e59b3a" stroke-width="6"/><text x="536" y="372" text-anchor="middle" fill="#173b57" font-size="16" font-weight="800">MAP</text><line x1="780" y1="430" x2="967" y2="299" stroke="#e59b3a" stroke-width="6"/><circle cx="967" cy="299" r="44" fill="white" stroke="#e59b3a" stroke-width="6"/><text x="967" y="305" text-anchor="middle" fill="#173b57" font-size="16" font-weight="800">NEXT</text>
<circle cx="90" cy="680" r="10" fill="#e59b3a" opacity="0.35"/><circle cx="172" cy="680" r="9" fill="#e59b3a" opacity="0.35"/><circle cx="254" cy="680" r="12" fill="#e59b3a" opacity="0.35"/><circle cx="336" cy="680" r="10" fill="#e59b3a" opacity="0.35"/><circle cx="418" cy="680" r="9" fill="#e59b3a" opacity="0.35"/><circle cx="500" cy="680" r="12" fill="#e59b3a" opacity="0.35"/><circle cx="582" cy="680" r="10" fill="#e59b3a" opacity="0.35"/><circle cx="664" cy="680" r="9" fill="#e59b3a" opacity="0.35"/><circle cx="746" cy="680" r="8" fill="#e59b3a" opacity="0.35"/><circle cx="828" cy="680" r="8" fill="#e59b3a" opacity="0.35"/><circle cx="910" cy="680" r="12" fill="#e59b3a" opacity="0.35"/><circle cx="992" cy="680" r="10" fill="#e59b3a" opacity="0.35"/>
<text x="72" y="724" fill="#173b57" font-size="18">Unique article graphic • bathroom-medicine-storage-a-weekly-family-check</text>
</svg>
