<svg xmlns="http://www.w3.org/2000/svg" width="1200" height="760" viewBox="0 0 1200 760" role="img" aria-labelledby="title desc">
<title id="title">Nursery Cord Safety: Blinds, Monitors, and Chargers article graphic</title>
<desc id="desc">Unique branded article graphic for SaferKids: Nursery Cord Safety: Blinds, Monitors, and Chargers.</desc>
<rect width="1200" height="760" fill="#e8f4f8"/>
<rect width="1200" height="30" fill="#e59b3a"/>
<path d="M0 650 C190 570 250 720 430 625 S780 548 1200 650 L1200 760 L0 760 Z" fill="#173b57" opacity="0.08"/>
<text x="72" y="84" fill="#e59b3a" font-size="22" font-weight="800" letter-spacing="3">SAFERKIDS</text>
<text x="72" y="150" fill="#173b57" font-size="44" font-weight="800">Nursery Cord Safety: Blinds,</text><text x="72" y="208" fill="#173b57" font-size="44" font-weight="800">Monitors, and Chargers</text>
<circle cx="780" cy="430" r="112" fill="#173b57"/>
<text x="780" y="418" text-anchor="middle" fill="white" font-size="25" font-weight="800">ARTICLE</text>
<text x="780" y="454" text-anchor="middle" fill="white" font-size="25" font-weight="800">MAP</text>
<line x1="780" y1="430" x2="847" y2="613" stroke="#e59b3a" stroke-width="6"/><circle cx="847" cy="613" r="59" fill="white" stroke="#e59b3a" stroke-width="6"/><text x="847" y="619" text-anchor="middle" fill="#173b57" font-size="16" font-weight="800">CHECK</text><line x1="780" y1="430" x2="560" y2="530" stroke="#e59b3a" stroke-width="6"/><circle cx="560" cy="530" r="53" fill="white" stroke="#e59b3a" stroke-width="6"/><text x="560" y="536" text-anchor="middle" fill="#173b57" font-size="16" font-weight="800">VERIFY</text><line x1="780" y1="430" x2="526" y2="391" stroke="#e59b3a" stroke-width="6"/><circle cx="526" cy="391" r="48" fill="white" stroke="#e59b3a" stroke-width="6"/><text x="526" y="397" text-anchor="middle" fill="#173b57" font-size="16" font-weight="800">MAP</text><line x1="780" y1="430" x2="740" y2="243" stroke="#e59b3a" stroke-width="6"/><circle cx="740" cy="243" r="49" fill="white" stroke="#e59b3a" stroke-width="6"/><text x="740" y="249" text-anchor="middle" fill="#173b57" font-size="16" font-weight="800">NEXT</text>
<circle cx="90" cy="680" r="15" fill="#e59b3a" opacity="0.35"/><circle cx="172" cy="680" r="15" fill="#e59b3a" opacity="0.35"/><circle cx="254" cy="680" r="11" fill="#e59b3a" opacity="0.35"/><circle cx="336" cy="680" r="13" fill="#e59b3a" opacity="0.35"/><circle cx="418" cy="680" r="10" fill="#e59b3a" opacity="0.35"/><circle cx="500" cy="680" r="9" fill="#e59b3a" opacity="0.35"/><circle cx="582" cy="680" r="12" fill="#e59b3a" opacity="0.35"/><circle cx="664" cy="680" r="10" fill="#e59b3a" opacity="0.35"/><circle cx="746" cy="680" r="9" fill="#e59b3a" opacity="0.35"/><circle cx="828" cy="680" r="8" fill="#e59b3a" opacity="0.35"/><circle cx="910" cy="680" r="12" fill="#e59b3a" opacity="0.35"/><circle cx="992" cy="680" r="10" fill="#e59b3a" opacity="0.35"/>
<text x="72" y="724" fill="#173b57" font-size="18">Unique article graphic • nursery-cord-safety-blinds-monitors-and-chargers</text>
</svg>
