<svg xmlns="http://www.w3.org/2000/svg" width="1200" height="760" viewBox="0 0 1200 760" role="img" aria-labelledby="title desc"><title id="title">Travel Crib Setup Checklist for Hotels and Family Visits</title><desc id="desc">Original editorial illustration for Travel Crib Setup Checklist for Hotels and Family Visits, showing a distinct evidence-to-decision path with checkpoints and a stop branch.</desc><rect width="1200" height="760" fill="#f6f7f3"/><g><rect x="173" y="455" width="121" height="87" rx="15" fill="#e6ad4d" stroke="#215e66" stroke-width="4"/><rect x="82" y="364" width="214" height="136" rx="9" fill="#ffffff" stroke="#215e66" stroke-width="5"/><rect x="304" y="380" width="105" height="154" rx="8" fill="#dfe8e3" stroke="#215e66" stroke-width="6"/><rect x="331" y="449" width="234" height="57" rx="14" fill="#e6ad4d" stroke="#215e66" stroke-width="7"/><rect x="567" y="206" width="122" height="112" rx="27" fill="#ffffff" stroke="#215e66" stroke-width="4"/><rect x="829" y="461" width="134" height="125" rx="30" fill="#dfe8e3" stroke="#215e66" stroke-width="5"/><rect x="746" y="364" width="230" height="46" rx="13" fill="#e6ad4d" stroke="#215e66" stroke-width="6"/><rect x="852" y="470" width="90" height="45" rx="27" fill="#ffffff" stroke="#215e66" stroke-width="7"/><rect x="167" y="230" width="80" height="45" rx="24" fill="#dfe8e3" stroke="#215e66" stroke-width="4"/><polyline points="90,517 255,542 420,585 585,601 750,586 915,527 1080,540" fill="none" stroke="#215e66" stroke-width="12" stroke-linecap="round" stroke-linejoin="round"/><text x="70" y="88" font-family="Arial,sans-serif" font-size="40" font-weight="700" fill="#215e66">Travel Crib Setup Checklist for Hotels and Family</text><text x="72" y="135" font-family="Arial,sans-serif" font-size="21" fill="#215e66">Observe → compare → decide → record</text><path d="M1010 545 l75 75 m0 -75 l-75 75" stroke="#e6ad4d" stroke-width="15"/><text x="930" y="690" font-family="Arial,sans-serif" font-size="23" fill="#215e66">STOP / VERIFY</text></g></svg>
